<?xml version="1.0" standalone="no"?><!DOCTYPE svg PUBLIC "-//W3C//DTD SVG 1.1//EN" "http://www.w3.org/Graphics/SVG/1.1/DTD/svg11.dtd"><svg t="1731595550369" class="icon" viewBox="0 0 1024 1024" version="1.1" xmlns="http://www.w3.org/2000/svg" p-id="1329" xmlns:xlink="http://www.w3.org/1999/xlink" width="256" height="256"><path d="M791.1 896.8c49-32.3 80-92.8 84-148 4.9-67.7-0.7-125.8 67.8-237.6 32-52.2 38-157.2-37.8-196.4-74.7-38.6-128.1 10.1-118-32 21.8-91-46.2-184-105.1-200.8-55.3-15.8-126.9 11-164.9 78.7h-6.3c-38-67.8-127.1-87.4-182.3-71.7-58.9 16.8-109.5 102.7-87.7 193.7 10.1 42.1-43.3-6.6-118 32C47 353.9 53 458.9 85 511.2 153.5 623 147.9 681 152.8 748.8c4 55.2 35 115.7 84 148 63.7 41.9 211.8-1.1 277.2-1.1 62.3-0.1 224 36 277.1 1.1z" fill="#E6D2B4" p-id="1330"></path><path d="M792.7 737.9c22 100.6-87.3 122.4-135.5 109.3C609 834.1 510.9 832 510.9 832s-98.5 2.1-146.6 15.2c-48.2 13.3-139.1 3.6-135.7-109.3 3.8-123.9 91.6-104.2 144.5-231.8 44.9-108.2 142.1-98.2 142.1-98.2s85-7 133.3 98.2c57.7 125.5 122.7 103.8 144.2 231.8zM712.1 326.1c20.8-62.1 6.1-144.5-42.3-160.8-48.5-16.2-110.6 38.9-131.4 100.9-20.8 62.1 7.7 107.6 56.2 123.8 48.4 16.2 96.7-1.9 117.5-63.9zM314.1 326.1c-20.8-62.1-6.1-144.5 42.3-160.8S467 204.2 487.8 266.2c20.8 62.1-7.7 107.6-56.2 123.8-48.4 16.2-96.7-1.9-117.5-63.9zM173.2 530.5c-42.3-49.9-59.3-131.9-20.3-165s117.2-5 159.5 45 32.8 102.7-6.2 135.8-90.7 34.1-133-15.8zM853.2 530.5c42.3-49.9 59.3-131.9 20.3-165-39-33.1-117.2-5-159.5 45-42.3 49.9-32.8 102.7 6.2 135.8 39.1 33 90.7 34.1 133-15.8z" fill="#646464" p-id="1331"></path></svg>